<?xml version="1.0" standalone="no"?>
<!DOCTYPE svg PUBLIC "-//W3C//DTD SVG 1.1//EN" "http://www.w3.org/Graphics/SVG/1.1/DTD/svg11.dtd">
<svg width="800" height="600" version="1.1" xmlns="http://www.w3.org/2000/svg">
<rect width="800" height="600" x="0" y="0" style="fill:rgb(238,238,238);stroke:none"/>
<rect width="800" height="600" x="0" y="0" style="fill:rgb(255,255,255);stroke:none"/>
<text x="2" y="566" fill="rgb(0,0,0)" font-family="Arial" font-size="12">0</text>
<text x="2" y="486" fill="rgb(0,0,0)" font-family="Arial" font-size="12">5000</text>
<text x="2" y="406" fill="rgb(0,0,0)" font-family="Arial" font-size="12">10000</text>
<text x="2" y="325" fill="rgb(0,0,0)" font-family="Arial" font-size="12">15000</text>
<text x="2" y="245" fill="rgb(0,0,0)" font-family="Arial" font-size="12">20000</text>
<text x="2" y="165" fill="rgb(0,0,0)" font-family="Arial" font-size="12">25000</text>
<text x="2" y="84" fill="rgb(0,0,0)" font-family="Arial" font-size="12">30000</text>
<text x="292" y="30" fill="rgb(0,0,0)" font-family="Arial" font-size="12">Quality score distribution over all sequences</text>
<line x1="40" y1="560" x2="790" y2="560" stroke="rgb(0,0,0)" stroke-width="1"/>
<line x1="40" y1="560" x2="40" y2="40" stroke="rgb(0,0,0)" stroke-width="1"/>
<text x="295" y="595" fill="rgb(0,0,0)" font-family="Arial" font-size="12">Mean Sequence Quality (Phred Score)</text>
<text x="55" y="575" fill="rgb(0,0,0)" font-family="Arial" font-size="12">21</text>
<rect width="44" height="520" x="84" y="40" style="fill:rgb(230,230,230);stroke:none"/>
<text x="99" y="575" fill="rgb(0,0,0)" font-family="Arial" font-size="12">22</text>
<text x="143" y="575" fill="rgb(0,0,0)" font-family="Arial" font-size="12">23</text>
<rect width="44" height="520" x="172" y="40" style="fill:rgb(230,230,230);stroke:none"/>
<text x="187" y="575" fill="rgb(0,0,0)" font-family="Arial" font-size="12">24</text>
<text x="231" y="575" fill="rgb(0,0,0)" font-family="Arial" font-size="12">25</text>
<rect width="44" height="520" x="260" y="40" style="fill:rgb(230,230,230);stroke:none"/>
<text x="275" y="575" fill="rgb(0,0,0)" font-family="Arial" font-size="12">26</text>
<text x="319" y="575" fill="rgb(0,0,0)" font-family="Arial" font-size="12">27</text>
<rect width="44" height="520" x="348" y="40" style="fill:rgb(230,230,230);stroke:none"/>
<text x="363" y="575" fill="rgb(0,0,0)" font-family="Arial" font-size="12">28</text>
<text x="407" y="575" fill="rgb(0,0,0)" font-family="Arial" font-size="12">29</text>
<rect width="44" height="520" x="436" y="40" style="fill:rgb(230,230,230);stroke:none"/>
<text x="451" y="575" fill="rgb(0,0,0)" font-family="Arial" font-size="12">30</text>
<text x="495" y="575" fill="rgb(0,0,0)" font-family="Arial" font-size="12">31</text>
<rect width="44" height="520" x="524" y="40" style="fill:rgb(230,230,230);stroke:none"/>
<text x="539" y="575" fill="rgb(0,0,0)" font-family="Arial" font-size="12">32</text>
<text x="583" y="575" fill="rgb(0,0,0)" font-family="Arial" font-size="12">33</text>
<rect width="44" height="520" x="612" y="40" style="fill:rgb(230,230,230);stroke:none"/>
<text x="627" y="575" fill="rgb(0,0,0)" font-family="Arial" font-size="12">34</text>
<text x="671" y="575" fill="rgb(0,0,0)" font-family="Arial" font-size="12">35</text>
<rect width="44" height="520" x="700" y="40" style="fill:rgb(230,230,230);stroke:none"/>
<text x="715" y="575" fill="rgb(0,0,0)" font-family="Arial" font-size="12">36</text>
<text x="759" y="575" fill="rgb(0,0,0)" font-family="Arial" font-size="12">37</text>
<line x1="40" y1="560" x2="790" y2="560" stroke="rgb(180,180,180)" stroke-width="1"/>
<line x1="40" y1="480" x2="790" y2="480" stroke="rgb(180,180,180)" stroke-width="1"/>
<line x1="40" y1="400" x2="790" y2="400" stroke="rgb(180,180,180)" stroke-width="1"/>
<line x1="40" y1="319" x2="790" y2="319" stroke="rgb(180,180,180)" stroke-width="1"/>
<line x1="40" y1="239" x2="790" y2="239" stroke="rgb(180,180,180)" stroke-width="1"/>
<line x1="40" y1="159" x2="790" y2="159" stroke="rgb(180,180,180)" stroke-width="1"/>
<line x1="40" y1="78" x2="790" y2="78" stroke="rgb(180,180,180)" stroke-width="1"/>
<line x1="62" y1="560" x2="106" y2="558" stroke="rgb(136,34,85)" stroke-width="1"/>
<line x1="106" y1="558" x2="150" y2="555" stroke="rgb(136,34,85)" stroke-width="1"/>
<line x1="150" y1="555" x2="194" y2="550" stroke="rgb(136,34,85)" stroke-width="1"/>
<line x1="194" y1="550" x2="238" y2="545" stroke="rgb(136,34,85)" stroke-width="1"/>
<line x1="238" y1="545" x2="282" y2="541" stroke="rgb(136,34,85)" stroke-width="1"/>
<line x1="282" y1="541" x2="326" y2="537" stroke="rgb(136,34,85)" stroke-width="1"/>
<line x1="326" y1="537" x2="370" y2="531" stroke="rgb(136,34,85)" stroke-width="1"/>
<line x1="370" y1="531" x2="414" y2="523" stroke="rgb(136,34,85)" stroke-width="1"/>
<line x1="414" y1="523" x2="458" y2="511" stroke="rgb(136,34,85)" stroke-width="1"/>
<line x1="458" y1="511" x2="502" y2="497" stroke="rgb(136,34,85)" stroke-width="1"/>
<line x1="502" y1="497" x2="546" y2="474" stroke="rgb(136,34,85)" stroke-width="1"/>
<line x1="546" y1="474" x2="590" y2="432" stroke="rgb(136,34,85)" stroke-width="1"/>
<line x1="590" y1="432" x2="634" y2="350" stroke="rgb(136,34,85)" stroke-width="1"/>
<line x1="634" y1="350" x2="678" y2="184" stroke="rgb(136,34,85)" stroke-width="1"/>
<line x1="678" y1="184" x2="722" y2="40" stroke="rgb(136,34,85)" stroke-width="1"/>
<line x1="722" y1="40" x2="766" y2="534" stroke="rgb(136,34,85)" stroke-width="1"/>
<rect width="156" height="23" x="634" y="40" style="fill:rgb(255,255,255);stroke:none"/>
<rect width="156" height="23" x="634" y="40" rx="0" ry="0" style="fill:none;stroke-width:1;stroke:rgb(192,192,192)"/>
<text x="637" y="55" fill="rgb(136,34,85)" font-family="Arial" font-size="12" font-weight="bold">Average Quality per read</text>
</svg>
