<?xml version="1.0" standalone="no"?>
<!DOCTYPE svg PUBLIC "-//W3C//DTD SVG 1.1//EN" "http://www.w3.org/Graphics/SVG/1.1/DTD/svg11.dtd">
<svg width="800" height="600" version="1.1" xmlns="http://www.w3.org/2000/svg">
<rect width="800" height="600" x="0" y="0" style="fill:rgb(238,238,238);stroke:none"/>
<rect width="800" height="600" x="0" y="0" style="fill:rgb(255,255,255);stroke:none"/>
<text x="2" y="566" fill="rgb(0,0,0)" font-family="Arial" font-size="12">0</text>
<text x="2" y="489" fill="rgb(0,0,0)" font-family="Arial" font-size="12">5000</text>
<text x="2" y="411" fill="rgb(0,0,0)" font-family="Arial" font-size="12">10000</text>
<text x="2" y="333" fill="rgb(0,0,0)" font-family="Arial" font-size="12">15000</text>
<text x="2" y="255" fill="rgb(0,0,0)" font-family="Arial" font-size="12">20000</text>
<text x="2" y="177" fill="rgb(0,0,0)" font-family="Arial" font-size="12">25000</text>
<text x="2" y="99" fill="rgb(0,0,0)" font-family="Arial" font-size="12">30000</text>
<text x="292" y="30" fill="rgb(0,0,0)" font-family="Arial" font-size="12">Quality score distribution over all sequences</text>
<line x1="40" y1="560" x2="790" y2="560" stroke="rgb(0,0,0)" stroke-width="1"/>
<line x1="40" y1="560" x2="40" y2="40" stroke="rgb(0,0,0)" stroke-width="1"/>
<text x="295" y="595" fill="rgb(0,0,0)" font-family="Arial" font-size="12">Mean Sequence Quality (Phred Score)</text>
<text x="53" y="575" fill="rgb(0,0,0)" font-family="Arial" font-size="12">20</text>
<rect width="41" height="520" x="81" y="40" style="fill:rgb(230,230,230);stroke:none"/>
<text x="94" y="575" fill="rgb(0,0,0)" font-family="Arial" font-size="12">21</text>
<text x="135" y="575" fill="rgb(0,0,0)" font-family="Arial" font-size="12">22</text>
<rect width="41" height="520" x="163" y="40" style="fill:rgb(230,230,230);stroke:none"/>
<text x="176" y="575" fill="rgb(0,0,0)" font-family="Arial" font-size="12">23</text>
<text x="217" y="575" fill="rgb(0,0,0)" font-family="Arial" font-size="12">24</text>
<rect width="41" height="520" x="245" y="40" style="fill:rgb(230,230,230);stroke:none"/>
<text x="258" y="575" fill="rgb(0,0,0)" font-family="Arial" font-size="12">25</text>
<text x="299" y="575" fill="rgb(0,0,0)" font-family="Arial" font-size="12">26</text>
<rect width="41" height="520" x="327" y="40" style="fill:rgb(230,230,230);stroke:none"/>
<text x="340" y="575" fill="rgb(0,0,0)" font-family="Arial" font-size="12">27</text>
<text x="381" y="575" fill="rgb(0,0,0)" font-family="Arial" font-size="12">28</text>
<rect width="41" height="520" x="409" y="40" style="fill:rgb(230,230,230);stroke:none"/>
<text x="422" y="575" fill="rgb(0,0,0)" font-family="Arial" font-size="12">29</text>
<text x="463" y="575" fill="rgb(0,0,0)" font-family="Arial" font-size="12">30</text>
<rect width="41" height="520" x="491" y="40" style="fill:rgb(230,230,230);stroke:none"/>
<text x="504" y="575" fill="rgb(0,0,0)" font-family="Arial" font-size="12">31</text>
<text x="545" y="575" fill="rgb(0,0,0)" font-family="Arial" font-size="12">32</text>
<rect width="41" height="520" x="573" y="40" style="fill:rgb(230,230,230);stroke:none"/>
<text x="586" y="575" fill="rgb(0,0,0)" font-family="Arial" font-size="12">33</text>
<text x="627" y="575" fill="rgb(0,0,0)" font-family="Arial" font-size="12">34</text>
<rect width="41" height="520" x="655" y="40" style="fill:rgb(230,230,230);stroke:none"/>
<text x="668" y="575" fill="rgb(0,0,0)" font-family="Arial" font-size="12">35</text>
<text x="709" y="575" fill="rgb(0,0,0)" font-family="Arial" font-size="12">36</text>
<rect width="41" height="520" x="737" y="40" style="fill:rgb(230,230,230);stroke:none"/>
<text x="750" y="575" fill="rgb(0,0,0)" font-family="Arial" font-size="12">37</text>
<line x1="40" y1="560" x2="790" y2="560" stroke="rgb(180,180,180)" stroke-width="1"/>
<line x1="40" y1="483" x2="790" y2="483" stroke="rgb(180,180,180)" stroke-width="1"/>
<line x1="40" y1="405" x2="790" y2="405" stroke="rgb(180,180,180)" stroke-width="1"/>
<line x1="40" y1="327" x2="790" y2="327" stroke="rgb(180,180,180)" stroke-width="1"/>
<line x1="40" y1="249" x2="790" y2="249" stroke="rgb(180,180,180)" stroke-width="1"/>
<line x1="40" y1="171" x2="790" y2="171" stroke="rgb(180,180,180)" stroke-width="1"/>
<line x1="40" y1="93" x2="790" y2="93" stroke="rgb(180,180,180)" stroke-width="1"/>
<line x1="60" y1="560" x2="101" y2="560" stroke="rgb(136,34,85)" stroke-width="1"/>
<line x1="101" y1="560" x2="142" y2="558" stroke="rgb(136,34,85)" stroke-width="1"/>
<line x1="142" y1="558" x2="183" y2="555" stroke="rgb(136,34,85)" stroke-width="1"/>
<line x1="183" y1="555" x2="224" y2="551" stroke="rgb(136,34,85)" stroke-width="1"/>
<line x1="224" y1="551" x2="265" y2="547" stroke="rgb(136,34,85)" stroke-width="1"/>
<line x1="265" y1="547" x2="306" y2="543" stroke="rgb(136,34,85)" stroke-width="1"/>
<line x1="306" y1="543" x2="347" y2="539" stroke="rgb(136,34,85)" stroke-width="1"/>
<line x1="347" y1="539" x2="388" y2="534" stroke="rgb(136,34,85)" stroke-width="1"/>
<line x1="388" y1="534" x2="429" y2="527" stroke="rgb(136,34,85)" stroke-width="1"/>
<line x1="429" y1="527" x2="470" y2="517" stroke="rgb(136,34,85)" stroke-width="1"/>
<line x1="470" y1="517" x2="511" y2="501" stroke="rgb(136,34,85)" stroke-width="1"/>
<line x1="511" y1="501" x2="552" y2="479" stroke="rgb(136,34,85)" stroke-width="1"/>
<line x1="552" y1="479" x2="593" y2="439" stroke="rgb(136,34,85)" stroke-width="1"/>
<line x1="593" y1="439" x2="634" y2="363" stroke="rgb(136,34,85)" stroke-width="1"/>
<line x1="634" y1="363" x2="675" y2="185" stroke="rgb(136,34,85)" stroke-width="1"/>
<line x1="675" y1="185" x2="716" y2="40" stroke="rgb(136,34,85)" stroke-width="1"/>
<line x1="716" y1="40" x2="757" y2="532" stroke="rgb(136,34,85)" stroke-width="1"/>
<rect width="156" height="23" x="634" y="40" style="fill:rgb(255,255,255);stroke:none"/>
<rect width="156" height="23" x="634" y="40" rx="0" ry="0" style="fill:none;stroke-width:1;stroke:rgb(192,192,192)"/>
<text x="637" y="55" fill="rgb(136,34,85)" font-family="Arial" font-size="12" font-weight="bold">Average Quality per read</text>
</svg>
