<?xml version="1.0" standalone="no"?>
<!DOCTYPE svg PUBLIC "-//W3C//DTD SVG 1.1//EN" "http://www.w3.org/Graphics/SVG/1.1/DTD/svg11.dtd">
<svg width="800" height="600" version="1.1" xmlns="http://www.w3.org/2000/svg">
<rect width="800" height="600" x="0" y="0" style="fill:rgb(238,238,238);stroke:none"/>
<rect width="800" height="600" x="0" y="0" style="fill:rgb(255,255,255);stroke:none"/>
<text x="2" y="566" fill="rgb(0,0,0)" font-family="Arial" font-size="12">0</text>
<text x="2" y="509" fill="rgb(0,0,0)" font-family="Arial" font-size="12">500</text>
<text x="2" y="451" fill="rgb(0,0,0)" font-family="Arial" font-size="12">1000</text>
<text x="2" y="394" fill="rgb(0,0,0)" font-family="Arial" font-size="12">1500</text>
<text x="2" y="336" fill="rgb(0,0,0)" font-family="Arial" font-size="12">2000</text>
<text x="2" y="279" fill="rgb(0,0,0)" font-family="Arial" font-size="12">2500</text>
<text x="2" y="221" fill="rgb(0,0,0)" font-family="Arial" font-size="12">3000</text>
<text x="2" y="164" fill="rgb(0,0,0)" font-family="Arial" font-size="12">3500</text>
<text x="2" y="106" fill="rgb(0,0,0)" font-family="Arial" font-size="12">4000</text>
<text x="2" y="49" fill="rgb(0,0,0)" font-family="Arial" font-size="12">4500</text>
<text x="316" y="30" fill="rgb(0,0,0)" font-family="Arial" font-size="12">GC distribution over all sequences</text>
<line x1="33" y1="560" x2="790" y2="560" stroke="rgb(0,0,0)" stroke-width="1"/>
<line x1="33" y1="560" x2="33" y2="40" stroke="rgb(0,0,0)" stroke-width="1"/>
<text x="341" y="595" fill="rgb(0,0,0)" font-family="Arial" font-size="12">Mean GC content (%)</text>
<text x="33" y="575" fill="rgb(0,0,0)" font-family="Arial" font-size="12">0</text>
<rect width="7" height="520" x="40" y="40" style="fill:rgb(230,230,230);stroke:none"/>
<text x="47" y="575" fill="rgb(0,0,0)" font-family="Arial" font-size="12">2</text>
<rect width="7" height="520" x="54" y="40" style="fill:rgb(230,230,230);stroke:none"/>
<text x="61" y="575" fill="rgb(0,0,0)" font-family="Arial" font-size="12">4</text>
<rect width="7" height="520" x="68" y="40" style="fill:rgb(230,230,230);stroke:none"/>
<text x="75" y="575" fill="rgb(0,0,0)" font-family="Arial" font-size="12">6</text>
<rect width="7" height="520" x="82" y="40" style="fill:rgb(230,230,230);stroke:none"/>
<text x="89" y="575" fill="rgb(0,0,0)" font-family="Arial" font-size="12">8</text>
<rect width="7" height="520" x="96" y="40" style="fill:rgb(230,230,230);stroke:none"/>
<rect width="7" height="520" x="110" y="40" style="fill:rgb(230,230,230);stroke:none"/>
<text x="106" y="575" fill="rgb(0,0,0)" font-family="Arial" font-size="12">11</text>
<rect width="7" height="520" x="124" y="40" style="fill:rgb(230,230,230);stroke:none"/>
<text x="127" y="575" fill="rgb(0,0,0)" font-family="Arial" font-size="12">14</text>
<rect width="7" height="520" x="138" y="40" style="fill:rgb(230,230,230);stroke:none"/>
<rect width="7" height="520" x="152" y="40" style="fill:rgb(230,230,230);stroke:none"/>
<text x="148" y="575" fill="rgb(0,0,0)" font-family="Arial" font-size="12">17</text>
<rect width="7" height="520" x="166" y="40" style="fill:rgb(230,230,230);stroke:none"/>
<text x="169" y="575" fill="rgb(0,0,0)" font-family="Arial" font-size="12">20</text>
<rect width="7" height="520" x="180" y="40" style="fill:rgb(230,230,230);stroke:none"/>
<rect width="7" height="520" x="194" y="40" style="fill:rgb(230,230,230);stroke:none"/>
<text x="190" y="575" fill="rgb(0,0,0)" font-family="Arial" font-size="12">23</text>
<rect width="7" height="520" x="208" y="40" style="fill:rgb(230,230,230);stroke:none"/>
<text x="211" y="575" fill="rgb(0,0,0)" font-family="Arial" font-size="12">26</text>
<rect width="7" height="520" x="222" y="40" style="fill:rgb(230,230,230);stroke:none"/>
<rect width="7" height="520" x="236" y="40" style="fill:rgb(230,230,230);stroke:none"/>
<text x="232" y="575" fill="rgb(0,0,0)" font-family="Arial" font-size="12">29</text>
<rect width="7" height="520" x="250" y="40" style="fill:rgb(230,230,230);stroke:none"/>
<text x="253" y="575" fill="rgb(0,0,0)" font-family="Arial" font-size="12">32</text>
<rect width="7" height="520" x="264" y="40" style="fill:rgb(230,230,230);stroke:none"/>
<rect width="7" height="520" x="278" y="40" style="fill:rgb(230,230,230);stroke:none"/>
<text x="274" y="575" fill="rgb(0,0,0)" font-family="Arial" font-size="12">35</text>
<rect width="7" height="520" x="292" y="40" style="fill:rgb(230,230,230);stroke:none"/>
<text x="295" y="575" fill="rgb(0,0,0)" font-family="Arial" font-size="12">38</text>
<rect width="7" height="520" x="306" y="40" style="fill:rgb(230,230,230);stroke:none"/>
<rect width="7" height="520" x="320" y="40" style="fill:rgb(230,230,230);stroke:none"/>
<text x="316" y="575" fill="rgb(0,0,0)" font-family="Arial" font-size="12">41</text>
<rect width="7" height="520" x="334" y="40" style="fill:rgb(230,230,230);stroke:none"/>
<text x="337" y="575" fill="rgb(0,0,0)" font-family="Arial" font-size="12">44</text>
<rect width="7" height="520" x="348" y="40" style="fill:rgb(230,230,230);stroke:none"/>
<rect width="7" height="520" x="362" y="40" style="fill:rgb(230,230,230);stroke:none"/>
<text x="358" y="575" fill="rgb(0,0,0)" font-family="Arial" font-size="12">47</text>
<rect width="7" height="520" x="376" y="40" style="fill:rgb(230,230,230);stroke:none"/>
<text x="379" y="575" fill="rgb(0,0,0)" font-family="Arial" font-size="12">50</text>
<rect width="7" height="520" x="390" y="40" style="fill:rgb(230,230,230);stroke:none"/>
<rect width="7" height="520" x="404" y="40" style="fill:rgb(230,230,230);stroke:none"/>
<text x="400" y="575" fill="rgb(0,0,0)" font-family="Arial" font-size="12">53</text>
<rect width="7" height="520" x="418" y="40" style="fill:rgb(230,230,230);stroke:none"/>
<text x="421" y="575" fill="rgb(0,0,0)" font-family="Arial" font-size="12">56</text>
<rect width="7" height="520" x="432" y="40" style="fill:rgb(230,230,230);stroke:none"/>
<rect width="7" height="520" x="446" y="40" style="fill:rgb(230,230,230);stroke:none"/>
<text x="442" y="575" fill="rgb(0,0,0)" font-family="Arial" font-size="12">59</text>
<rect width="7" height="520" x="460" y="40" style="fill:rgb(230,230,230);stroke:none"/>
<text x="463" y="575" fill="rgb(0,0,0)" font-family="Arial" font-size="12">62</text>
<rect width="7" height="520" x="474" y="40" style="fill:rgb(230,230,230);stroke:none"/>
<rect width="7" height="520" x="488" y="40" style="fill:rgb(230,230,230);stroke:none"/>
<text x="484" y="575" fill="rgb(0,0,0)" font-family="Arial" font-size="12">65</text>
<rect width="7" height="520" x="502" y="40" style="fill:rgb(230,230,230);stroke:none"/>
<text x="505" y="575" fill="rgb(0,0,0)" font-family="Arial" font-size="12">68</text>
<rect width="7" height="520" x="516" y="40" style="fill:rgb(230,230,230);stroke:none"/>
<rect width="7" height="520" x="530" y="40" style="fill:rgb(230,230,230);stroke:none"/>
<text x="526" y="575" fill="rgb(0,0,0)" font-family="Arial" font-size="12">71</text>
<rect width="7" height="520" x="544" y="40" style="fill:rgb(230,230,230);stroke:none"/>
<text x="547" y="575" fill="rgb(0,0,0)" font-family="Arial" font-size="12">74</text>
<rect width="7" height="520" x="558" y="40" style="fill:rgb(230,230,230);stroke:none"/>
<rect width="7" height="520" x="572" y="40" style="fill:rgb(230,230,230);stroke:none"/>
<text x="568" y="575" fill="rgb(0,0,0)" font-family="Arial" font-size="12">77</text>
<rect width="7" height="520" x="586" y="40" style="fill:rgb(230,230,230);stroke:none"/>
<text x="589" y="575" fill="rgb(0,0,0)" font-family="Arial" font-size="12">80</text>
<rect width="7" height="520" x="600" y="40" style="fill:rgb(230,230,230);stroke:none"/>
<rect width="7" height="520" x="614" y="40" style="fill:rgb(230,230,230);stroke:none"/>
<text x="610" y="575" fill="rgb(0,0,0)" font-family="Arial" font-size="12">83</text>
<rect width="7" height="520" x="628" y="40" style="fill:rgb(230,230,230);stroke:none"/>
<text x="631" y="575" fill="rgb(0,0,0)" font-family="Arial" font-size="12">86</text>
<rect width="7" height="520" x="642" y="40" style="fill:rgb(230,230,230);stroke:none"/>
<rect width="7" height="520" x="656" y="40" style="fill:rgb(230,230,230);stroke:none"/>
<text x="652" y="575" fill="rgb(0,0,0)" font-family="Arial" font-size="12">89</text>
<rect width="7" height="520" x="670" y="40" style="fill:rgb(230,230,230);stroke:none"/>
<text x="673" y="575" fill="rgb(0,0,0)" font-family="Arial" font-size="12">92</text>
<rect width="7" height="520" x="684" y="40" style="fill:rgb(230,230,230);stroke:none"/>
<rect width="7" height="520" x="698" y="40" style="fill:rgb(230,230,230);stroke:none"/>
<text x="694" y="575" fill="rgb(0,0,0)" font-family="Arial" font-size="12">95</text>
<rect width="7" height="520" x="712" y="40" style="fill:rgb(230,230,230);stroke:none"/>
<text x="715" y="575" fill="rgb(0,0,0)" font-family="Arial" font-size="12">98</text>
<rect width="7" height="520" x="726" y="40" style="fill:rgb(230,230,230);stroke:none"/>
<line x1="33" y1="560" x2="790" y2="560" stroke="rgb(180,180,180)" stroke-width="1"/>
<line x1="33" y1="503" x2="790" y2="503" stroke="rgb(180,180,180)" stroke-width="1"/>
<line x1="33" y1="445" x2="790" y2="445" stroke="rgb(180,180,180)" stroke-width="1"/>
<line x1="33" y1="388" x2="790" y2="388" stroke="rgb(180,180,180)" stroke-width="1"/>
<line x1="33" y1="330" x2="790" y2="330" stroke="rgb(180,180,180)" stroke-width="1"/>
<line x1="33" y1="273" x2="790" y2="273" stroke="rgb(180,180,180)" stroke-width="1"/>
<line x1="33" y1="215" x2="790" y2="215" stroke="rgb(180,180,180)" stroke-width="1"/>
<line x1="33" y1="158" x2="790" y2="158" stroke="rgb(180,180,180)" stroke-width="1"/>
<line x1="33" y1="100" x2="790" y2="100" stroke="rgb(180,180,180)" stroke-width="1"/>
<line x1="33" y1="43" x2="790" y2="43" stroke="rgb(180,180,180)" stroke-width="1"/>
<line x1="36" y1="560" x2="43" y2="560" stroke="rgb(136,34,85)" stroke-width="1"/>
<line x1="43" y1="560" x2="50" y2="560" stroke="rgb(136,34,85)" stroke-width="1"/>
<line x1="50" y1="560" x2="57" y2="560" stroke="rgb(136,34,85)" stroke-width="1"/>
<line x1="57" y1="560" x2="64" y2="560" stroke="rgb(136,34,85)" stroke-width="1"/>
<line x1="64" y1="560" x2="71" y2="560" stroke="rgb(136,34,85)" stroke-width="1"/>
<line x1="71" y1="560" x2="78" y2="560" stroke="rgb(136,34,85)" stroke-width="1"/>
<line x1="78" y1="560" x2="85" y2="560" stroke="rgb(136,34,85)" stroke-width="1"/>
<line x1="85" y1="560" x2="92" y2="560" stroke="rgb(136,34,85)" stroke-width="1"/>
<line x1="92" y1="560" x2="99" y2="560" stroke="rgb(136,34,85)" stroke-width="1"/>
<line x1="99" y1="560" x2="106" y2="560" stroke="rgb(136,34,85)" stroke-width="1"/>
<line x1="106" y1="560" x2="113" y2="560" stroke="rgb(136,34,85)" stroke-width="1"/>
<line x1="113" y1="560" x2="120" y2="560" stroke="rgb(136,34,85)" stroke-width="1"/>
<line x1="120" y1="560" x2="127" y2="560" stroke="rgb(136,34,85)" stroke-width="1"/>
<line x1="127" y1="560" x2="134" y2="560" stroke="rgb(136,34,85)" stroke-width="1"/>
<line x1="134" y1="560" x2="141" y2="560" stroke="rgb(136,34,85)" stroke-width="1"/>
<line x1="141" y1="560" x2="148" y2="560" stroke="rgb(136,34,85)" stroke-width="1"/>
<line x1="148" y1="560" x2="155" y2="560" stroke="rgb(136,34,85)" stroke-width="1"/>
<line x1="155" y1="560" x2="162" y2="559" stroke="rgb(136,34,85)" stroke-width="1"/>
<line x1="162" y1="559" x2="169" y2="559" stroke="rgb(136,34,85)" stroke-width="1"/>
<line x1="169" y1="559" x2="176" y2="558" stroke="rgb(136,34,85)" stroke-width="1"/>
<line x1="176" y1="558" x2="183" y2="557" stroke="rgb(136,34,85)" stroke-width="1"/>
<line x1="183" y1="557" x2="190" y2="556" stroke="rgb(136,34,85)" stroke-width="1"/>
<line x1="190" y1="556" x2="197" y2="553" stroke="rgb(136,34,85)" stroke-width="1"/>
<line x1="197" y1="553" x2="204" y2="549" stroke="rgb(136,34,85)" stroke-width="1"/>
<line x1="204" y1="549" x2="211" y2="546" stroke="rgb(136,34,85)" stroke-width="1"/>
<line x1="211" y1="546" x2="218" y2="542" stroke="rgb(136,34,85)" stroke-width="1"/>
<line x1="218" y1="542" x2="225" y2="534" stroke="rgb(136,34,85)" stroke-width="1"/>
<line x1="225" y1="534" x2="232" y2="526" stroke="rgb(136,34,85)" stroke-width="1"/>
<line x1="232" y1="526" x2="239" y2="517" stroke="rgb(136,34,85)" stroke-width="1"/>
<line x1="239" y1="517" x2="246" y2="508" stroke="rgb(136,34,85)" stroke-width="1"/>
<line x1="246" y1="508" x2="253" y2="500" stroke="rgb(136,34,85)" stroke-width="1"/>
<line x1="253" y1="500" x2="260" y2="489" stroke="rgb(136,34,85)" stroke-width="1"/>
<line x1="260" y1="489" x2="267" y2="475" stroke="rgb(136,34,85)" stroke-width="1"/>
<line x1="267" y1="475" x2="274" y2="459" stroke="rgb(136,34,85)" stroke-width="1"/>
<line x1="274" y1="459" x2="281" y2="444" stroke="rgb(136,34,85)" stroke-width="1"/>
<line x1="281" y1="444" x2="288" y2="433" stroke="rgb(136,34,85)" stroke-width="1"/>
<line x1="288" y1="433" x2="295" y2="416" stroke="rgb(136,34,85)" stroke-width="1"/>
<line x1="295" y1="416" x2="302" y2="405" stroke="rgb(136,34,85)" stroke-width="1"/>
<line x1="302" y1="405" x2="309" y2="392" stroke="rgb(136,34,85)" stroke-width="1"/>
<line x1="309" y1="392" x2="316" y2="374" stroke="rgb(136,34,85)" stroke-width="1"/>
<line x1="316" y1="374" x2="323" y2="366" stroke="rgb(136,34,85)" stroke-width="1"/>
<line x1="323" y1="366" x2="330" y2="362" stroke="rgb(136,34,85)" stroke-width="1"/>
<line x1="330" y1="362" x2="337" y2="352" stroke="rgb(136,34,85)" stroke-width="1"/>
<line x1="337" y1="352" x2="344" y2="340" stroke="rgb(136,34,85)" stroke-width="1"/>
<line x1="344" y1="340" x2="351" y2="323" stroke="rgb(136,34,85)" stroke-width="1"/>
<line x1="351" y1="323" x2="358" y2="298" stroke="rgb(136,34,85)" stroke-width="1"/>
<line x1="358" y1="298" x2="365" y2="277" stroke="rgb(136,34,85)" stroke-width="1"/>
<line x1="365" y1="277" x2="372" y2="255" stroke="rgb(136,34,85)" stroke-width="1"/>
<line x1="372" y1="255" x2="379" y2="227" stroke="rgb(136,34,85)" stroke-width="1"/>
<line x1="379" y1="227" x2="386" y2="194" stroke="rgb(136,34,85)" stroke-width="1"/>
<line x1="386" y1="194" x2="393" y2="152" stroke="rgb(136,34,85)" stroke-width="1"/>
<line x1="393" y1="152" x2="400" y2="120" stroke="rgb(136,34,85)" stroke-width="1"/>
<line x1="400" y1="120" x2="407" y2="94" stroke="rgb(136,34,85)" stroke-width="1"/>
<line x1="407" y1="94" x2="414" y2="71" stroke="rgb(136,34,85)" stroke-width="1"/>
<line x1="414" y1="71" x2="421" y2="50" stroke="rgb(136,34,85)" stroke-width="1"/>
<line x1="421" y1="50" x2="428" y2="40" stroke="rgb(136,34,85)" stroke-width="1"/>
<line x1="428" y1="40" x2="435" y2="69" stroke="rgb(136,34,85)" stroke-width="1"/>
<line x1="435" y1="69" x2="442" y2="99" stroke="rgb(136,34,85)" stroke-width="1"/>
<line x1="442" y1="99" x2="449" y2="119" stroke="rgb(136,34,85)" stroke-width="1"/>
<line x1="449" y1="119" x2="456" y2="155" stroke="rgb(136,34,85)" stroke-width="1"/>
<line x1="456" y1="155" x2="463" y2="197" stroke="rgb(136,34,85)" stroke-width="1"/>
<line x1="463" y1="197" x2="470" y2="241" stroke="rgb(136,34,85)" stroke-width="1"/>
<line x1="470" y1="241" x2="477" y2="275" stroke="rgb(136,34,85)" stroke-width="1"/>
<line x1="477" y1="275" x2="484" y2="306" stroke="rgb(136,34,85)" stroke-width="1"/>
<line x1="484" y1="306" x2="491" y2="334" stroke="rgb(136,34,85)" stroke-width="1"/>
<line x1="491" y1="334" x2="498" y2="348" stroke="rgb(136,34,85)" stroke-width="1"/>
<line x1="498" y1="348" x2="505" y2="367" stroke="rgb(136,34,85)" stroke-width="1"/>
<line x1="505" y1="367" x2="512" y2="387" stroke="rgb(136,34,85)" stroke-width="1"/>
<line x1="512" y1="387" x2="519" y2="407" stroke="rgb(136,34,85)" stroke-width="1"/>
<line x1="519" y1="407" x2="526" y2="427" stroke="rgb(136,34,85)" stroke-width="1"/>
<line x1="526" y1="427" x2="533" y2="445" stroke="rgb(136,34,85)" stroke-width="1"/>
<line x1="533" y1="445" x2="540" y2="462" stroke="rgb(136,34,85)" stroke-width="1"/>
<line x1="540" y1="462" x2="547" y2="481" stroke="rgb(136,34,85)" stroke-width="1"/>
<line x1="547" y1="481" x2="554" y2="501" stroke="rgb(136,34,85)" stroke-width="1"/>
<line x1="554" y1="501" x2="561" y2="516" stroke="rgb(136,34,85)" stroke-width="1"/>
<line x1="561" y1="516" x2="568" y2="526" stroke="rgb(136,34,85)" stroke-width="1"/>
<line x1="568" y1="526" x2="575" y2="536" stroke="rgb(136,34,85)" stroke-width="1"/>
<line x1="575" y1="536" x2="582" y2="543" stroke="rgb(136,34,85)" stroke-width="1"/>
<line x1="582" y1="543" x2="589" y2="549" stroke="rgb(136,34,85)" stroke-width="1"/>
<line x1="589" y1="549" x2="596" y2="552" stroke="rgb(136,34,85)" stroke-width="1"/>
<line x1="596" y1="552" x2="603" y2="556" stroke="rgb(136,34,85)" stroke-width="1"/>
<line x1="603" y1="556" x2="610" y2="558" stroke="rgb(136,34,85)" stroke-width="1"/>
<line x1="610" y1="558" x2="617" y2="558" stroke="rgb(136,34,85)" stroke-width="1"/>
<line x1="617" y1="558" x2="624" y2="559" stroke="rgb(136,34,85)" stroke-width="1"/>
<line x1="624" y1="559" x2="631" y2="560" stroke="rgb(136,34,85)" stroke-width="1"/>
<line x1="631" y1="560" x2="638" y2="560" stroke="rgb(136,34,85)" stroke-width="1"/>
<line x1="638" y1="560" x2="645" y2="560" stroke="rgb(136,34,85)" stroke-width="1"/>
<line x1="645" y1="560" x2="652" y2="560" stroke="rgb(136,34,85)" stroke-width="1"/>
<line x1="652" y1="560" x2="659" y2="560" stroke="rgb(136,34,85)" stroke-width="1"/>
<line x1="659" y1="560" x2="666" y2="560" stroke="rgb(136,34,85)" stroke-width="1"/>
<line x1="666" y1="560" x2="673" y2="560" stroke="rgb(136,34,85)" stroke-width="1"/>
<line x1="673" y1="560" x2="680" y2="560" stroke="rgb(136,34,85)" stroke-width="1"/>
<line x1="680" y1="560" x2="687" y2="560" stroke="rgb(136,34,85)" stroke-width="1"/>
<line x1="687" y1="560" x2="694" y2="560" stroke="rgb(136,34,85)" stroke-width="1"/>
<line x1="694" y1="560" x2="701" y2="560" stroke="rgb(136,34,85)" stroke-width="1"/>
<line x1="701" y1="560" x2="708" y2="560" stroke="rgb(136,34,85)" stroke-width="1"/>
<line x1="708" y1="560" x2="715" y2="560" stroke="rgb(136,34,85)" stroke-width="1"/>
<line x1="715" y1="560" x2="722" y2="560" stroke="rgb(136,34,85)" stroke-width="1"/>
<line x1="722" y1="560" x2="729" y2="560" stroke="rgb(136,34,85)" stroke-width="1"/>
<line x1="729" y1="560" x2="736" y2="560" stroke="rgb(136,34,85)" stroke-width="1"/>
<line x1="36" y1="560" x2="43" y2="560" stroke="rgb(51,34,136)" stroke-width="1"/>
<line x1="43" y1="560" x2="50" y2="560" stroke="rgb(51,34,136)" stroke-width="1"/>
<line x1="50" y1="560" x2="57" y2="560" stroke="rgb(51,34,136)" stroke-width="1"/>
<line x1="57" y1="560" x2="64" y2="560" stroke="rgb(51,34,136)" stroke-width="1"/>
<line x1="64" y1="560" x2="71" y2="560" stroke="rgb(51,34,136)" stroke-width="1"/>
<line x1="71" y1="560" x2="78" y2="560" stroke="rgb(51,34,136)" stroke-width="1"/>
<line x1="78" y1="560" x2="85" y2="560" stroke="rgb(51,34,136)" stroke-width="1"/>
<line x1="85" y1="560" x2="92" y2="560" stroke="rgb(51,34,136)" stroke-width="1"/>
<line x1="92" y1="560" x2="99" y2="560" stroke="rgb(51,34,136)" stroke-width="1"/>
<line x1="99" y1="560" x2="106" y2="560" stroke="rgb(51,34,136)" stroke-width="1"/>
<line x1="106" y1="560" x2="113" y2="560" stroke="rgb(51,34,136)" stroke-width="1"/>
<line x1="113" y1="560" x2="120" y2="560" stroke="rgb(51,34,136)" stroke-width="1"/>
<line x1="120" y1="560" x2="127" y2="560" stroke="rgb(51,34,136)" stroke-width="1"/>
<line x1="127" y1="560" x2="134" y2="560" stroke="rgb(51,34,136)" stroke-width="1"/>
<line x1="134" y1="560" x2="141" y2="560" stroke="rgb(51,34,136)" stroke-width="1"/>
<line x1="141" y1="560" x2="148" y2="560" stroke="rgb(51,34,136)" stroke-width="1"/>
<line x1="148" y1="560" x2="155" y2="560" stroke="rgb(51,34,136)" stroke-width="1"/>
<line x1="155" y1="560" x2="162" y2="560" stroke="rgb(51,34,136)" stroke-width="1"/>
<line x1="162" y1="560" x2="169" y2="559" stroke="rgb(51,34,136)" stroke-width="1"/>
<line x1="169" y1="559" x2="176" y2="559" stroke="rgb(51,34,136)" stroke-width="1"/>
<line x1="176" y1="559" x2="183" y2="558" stroke="rgb(51,34,136)" stroke-width="1"/>
<line x1="183" y1="558" x2="190" y2="557" stroke="rgb(51,34,136)" stroke-width="1"/>
<line x1="190" y1="557" x2="197" y2="556" stroke="rgb(51,34,136)" stroke-width="1"/>
<line x1="197" y1="556" x2="204" y2="555" stroke="rgb(51,34,136)" stroke-width="1"/>
<line x1="204" y1="555" x2="211" y2="553" stroke="rgb(51,34,136)" stroke-width="1"/>
<line x1="211" y1="553" x2="218" y2="551" stroke="rgb(51,34,136)" stroke-width="1"/>
<line x1="218" y1="551" x2="225" y2="549" stroke="rgb(51,34,136)" stroke-width="1"/>
<line x1="225" y1="549" x2="232" y2="545" stroke="rgb(51,34,136)" stroke-width="1"/>
<line x1="232" y1="545" x2="239" y2="541" stroke="rgb(51,34,136)" stroke-width="1"/>
<line x1="239" y1="541" x2="246" y2="536" stroke="rgb(51,34,136)" stroke-width="1"/>
<line x1="246" y1="536" x2="253" y2="530" stroke="rgb(51,34,136)" stroke-width="1"/>
<line x1="253" y1="530" x2="260" y2="523" stroke="rgb(51,34,136)" stroke-width="1"/>
<line x1="260" y1="523" x2="267" y2="514" stroke="rgb(51,34,136)" stroke-width="1"/>
<line x1="267" y1="514" x2="274" y2="505" stroke="rgb(51,34,136)" stroke-width="1"/>
<line x1="274" y1="505" x2="281" y2="493" stroke="rgb(51,34,136)" stroke-width="1"/>
<line x1="281" y1="493" x2="288" y2="480" stroke="rgb(51,34,136)" stroke-width="1"/>
<line x1="288" y1="480" x2="295" y2="465" stroke="rgb(51,34,136)" stroke-width="1"/>
<line x1="295" y1="465" x2="302" y2="449" stroke="rgb(51,34,136)" stroke-width="1"/>
<line x1="302" y1="449" x2="309" y2="431" stroke="rgb(51,34,136)" stroke-width="1"/>
<line x1="309" y1="431" x2="316" y2="411" stroke="rgb(51,34,136)" stroke-width="1"/>
<line x1="316" y1="411" x2="323" y2="390" stroke="rgb(51,34,136)" stroke-width="1"/>
<line x1="323" y1="390" x2="330" y2="368" stroke="rgb(51,34,136)" stroke-width="1"/>
<line x1="330" y1="368" x2="337" y2="344" stroke="rgb(51,34,136)" stroke-width="1"/>
<line x1="337" y1="344" x2="344" y2="320" stroke="rgb(51,34,136)" stroke-width="1"/>
<line x1="344" y1="320" x2="351" y2="295" stroke="rgb(51,34,136)" stroke-width="1"/>
<line x1="351" y1="295" x2="358" y2="271" stroke="rgb(51,34,136)" stroke-width="1"/>
<line x1="358" y1="271" x2="365" y2="247" stroke="rgb(51,34,136)" stroke-width="1"/>
<line x1="365" y1="247" x2="372" y2="224" stroke="rgb(51,34,136)" stroke-width="1"/>
<line x1="372" y1="224" x2="379" y2="202" stroke="rgb(51,34,136)" stroke-width="1"/>
<line x1="379" y1="202" x2="386" y2="183" stroke="rgb(51,34,136)" stroke-width="1"/>
<line x1="386" y1="183" x2="393" y2="166" stroke="rgb(51,34,136)" stroke-width="1"/>
<line x1="393" y1="166" x2="400" y2="151" stroke="rgb(51,34,136)" stroke-width="1"/>
<line x1="400" y1="151" x2="407" y2="140" stroke="rgb(51,34,136)" stroke-width="1"/>
<line x1="407" y1="140" x2="414" y2="133" stroke="rgb(51,34,136)" stroke-width="1"/>
<line x1="414" y1="133" x2="421" y2="129" stroke="rgb(51,34,136)" stroke-width="1"/>
<line x1="421" y1="129" x2="428" y2="129" stroke="rgb(51,34,136)" stroke-width="1"/>
<line x1="428" y1="129" x2="435" y2="133" stroke="rgb(51,34,136)" stroke-width="1"/>
<line x1="435" y1="133" x2="442" y2="140" stroke="rgb(51,34,136)" stroke-width="1"/>
<line x1="442" y1="140" x2="449" y2="151" stroke="rgb(51,34,136)" stroke-width="1"/>
<line x1="449" y1="151" x2="456" y2="166" stroke="rgb(51,34,136)" stroke-width="1"/>
<line x1="456" y1="166" x2="463" y2="183" stroke="rgb(51,34,136)" stroke-width="1"/>
<line x1="463" y1="183" x2="470" y2="202" stroke="rgb(51,34,136)" stroke-width="1"/>
<line x1="470" y1="202" x2="477" y2="224" stroke="rgb(51,34,136)" stroke-width="1"/>
<line x1="477" y1="224" x2="484" y2="247" stroke="rgb(51,34,136)" stroke-width="1"/>
<line x1="484" y1="247" x2="491" y2="271" stroke="rgb(51,34,136)" stroke-width="1"/>
<line x1="491" y1="271" x2="498" y2="295" stroke="rgb(51,34,136)" stroke-width="1"/>
<line x1="498" y1="295" x2="505" y2="320" stroke="rgb(51,34,136)" stroke-width="1"/>
<line x1="505" y1="320" x2="512" y2="344" stroke="rgb(51,34,136)" stroke-width="1"/>
<line x1="512" y1="344" x2="519" y2="368" stroke="rgb(51,34,136)" stroke-width="1"/>
<line x1="519" y1="368" x2="526" y2="390" stroke="rgb(51,34,136)" stroke-width="1"/>
<line x1="526" y1="390" x2="533" y2="411" stroke="rgb(51,34,136)" stroke-width="1"/>
<line x1="533" y1="411" x2="540" y2="431" stroke="rgb(51,34,136)" stroke-width="1"/>
<line x1="540" y1="431" x2="547" y2="449" stroke="rgb(51,34,136)" stroke-width="1"/>
<line x1="547" y1="449" x2="554" y2="465" stroke="rgb(51,34,136)" stroke-width="1"/>
<line x1="554" y1="465" x2="561" y2="480" stroke="rgb(51,34,136)" stroke-width="1"/>
<line x1="561" y1="480" x2="568" y2="493" stroke="rgb(51,34,136)" stroke-width="1"/>
<line x1="568" y1="493" x2="575" y2="505" stroke="rgb(51,34,136)" stroke-width="1"/>
<line x1="575" y1="505" x2="582" y2="514" stroke="rgb(51,34,136)" stroke-width="1"/>
<line x1="582" y1="514" x2="589" y2="523" stroke="rgb(51,34,136)" stroke-width="1"/>
<line x1="589" y1="523" x2="596" y2="530" stroke="rgb(51,34,136)" stroke-width="1"/>
<line x1="596" y1="530" x2="603" y2="536" stroke="rgb(51,34,136)" stroke-width="1"/>
<line x1="603" y1="536" x2="610" y2="541" stroke="rgb(51,34,136)" stroke-width="1"/>
<line x1="610" y1="541" x2="617" y2="545" stroke="rgb(51,34,136)" stroke-width="1"/>
<line x1="617" y1="545" x2="624" y2="549" stroke="rgb(51,34,136)" stroke-width="1"/>
<line x1="624" y1="549" x2="631" y2="551" stroke="rgb(51,34,136)" stroke-width="1"/>
<line x1="631" y1="551" x2="638" y2="553" stroke="rgb(51,34,136)" stroke-width="1"/>
<line x1="638" y1="553" x2="645" y2="555" stroke="rgb(51,34,136)" stroke-width="1"/>
<line x1="645" y1="555" x2="652" y2="556" stroke="rgb(51,34,136)" stroke-width="1"/>
<line x1="652" y1="556" x2="659" y2="557" stroke="rgb(51,34,136)" stroke-width="1"/>
<line x1="659" y1="557" x2="666" y2="558" stroke="rgb(51,34,136)" stroke-width="1"/>
<line x1="666" y1="558" x2="673" y2="559" stroke="rgb(51,34,136)" stroke-width="1"/>
<line x1="673" y1="559" x2="680" y2="559" stroke="rgb(51,34,136)" stroke-width="1"/>
<line x1="680" y1="559" x2="687" y2="560" stroke="rgb(51,34,136)" stroke-width="1"/>
<line x1="687" y1="560" x2="694" y2="560" stroke="rgb(51,34,136)" stroke-width="1"/>
<line x1="694" y1="560" x2="701" y2="560" stroke="rgb(51,34,136)" stroke-width="1"/>
<line x1="701" y1="560" x2="708" y2="560" stroke="rgb(51,34,136)" stroke-width="1"/>
<line x1="708" y1="560" x2="715" y2="560" stroke="rgb(51,34,136)" stroke-width="1"/>
<line x1="715" y1="560" x2="722" y2="560" stroke="rgb(51,34,136)" stroke-width="1"/>
<line x1="722" y1="560" x2="729" y2="560" stroke="rgb(51,34,136)" stroke-width="1"/>
<line x1="729" y1="560" x2="736" y2="560" stroke="rgb(51,34,136)" stroke-width="1"/>
<rect width="149" height="43" x="641" y="40" style="fill:rgb(255,255,255);stroke:none"/>
<rect width="149" height="43" x="641" y="40" rx="0" ry="0" style="fill:none;stroke-width:1;stroke:rgb(192,192,192)"/>
<text x="644" y="55" fill="rgb(136,34,85)" font-family="Arial" font-size="12" font-weight="bold">GC count per read</text>
<text x="644" y="75" fill="rgb(51,34,136)" font-family="Arial" font-size="12" font-weight="bold">Theoretical Distribution</text>
</svg>
