<?xml version="1.0" standalone="no"?>
<!DOCTYPE svg PUBLIC "-//W3C//DTD SVG 1.1//EN" "http://www.w3.org/Graphics/SVG/1.1/DTD/svg11.dtd">
<svg width="800" height="600" version="1.1" xmlns="http://www.w3.org/2000/svg">
<rect width="800" height="600" x="0" y="0" style="fill:rgb(238,238,238);stroke:none"/>
<rect width="800" height="600" x="0" y="0" style="fill:rgb(255,255,255);stroke:none"/>
<text x="2" y="566" fill="rgb(0,0,0)" font-family="Arial" font-size="12">0</text>
<text x="2" y="508" fill="rgb(0,0,0)" font-family="Arial" font-size="12">5000</text>
<text x="2" y="449" fill="rgb(0,0,0)" font-family="Arial" font-size="12">10000</text>
<text x="2" y="391" fill="rgb(0,0,0)" font-family="Arial" font-size="12">15000</text>
<text x="2" y="332" fill="rgb(0,0,0)" font-family="Arial" font-size="12">20000</text>
<text x="2" y="274" fill="rgb(0,0,0)" font-family="Arial" font-size="12">25000</text>
<text x="2" y="215" fill="rgb(0,0,0)" font-family="Arial" font-size="12">30000</text>
<text x="2" y="157" fill="rgb(0,0,0)" font-family="Arial" font-size="12">35000</text>
<text x="2" y="98" fill="rgb(0,0,0)" font-family="Arial" font-size="12">40000</text>
<text x="292" y="30" fill="rgb(0,0,0)" font-family="Arial" font-size="12">Quality score distribution over all sequences</text>
<line x1="40" y1="560" x2="790" y2="560" stroke="rgb(0,0,0)" stroke-width="1"/>
<line x1="40" y1="560" x2="40" y2="40" stroke="rgb(0,0,0)" stroke-width="1"/>
<text x="295" y="595" fill="rgb(0,0,0)" font-family="Arial" font-size="12">Mean Sequence Quality (Phred Score)</text>
<text x="56" y="575" fill="rgb(0,0,0)" font-family="Arial" font-size="12">22</text>
<rect width="46" height="520" x="86" y="40" style="fill:rgb(230,230,230);stroke:none"/>
<text x="102" y="575" fill="rgb(0,0,0)" font-family="Arial" font-size="12">23</text>
<text x="148" y="575" fill="rgb(0,0,0)" font-family="Arial" font-size="12">24</text>
<rect width="46" height="520" x="178" y="40" style="fill:rgb(230,230,230);stroke:none"/>
<text x="194" y="575" fill="rgb(0,0,0)" font-family="Arial" font-size="12">25</text>
<text x="240" y="575" fill="rgb(0,0,0)" font-family="Arial" font-size="12">26</text>
<rect width="46" height="520" x="270" y="40" style="fill:rgb(230,230,230);stroke:none"/>
<text x="286" y="575" fill="rgb(0,0,0)" font-family="Arial" font-size="12">27</text>
<text x="332" y="575" fill="rgb(0,0,0)" font-family="Arial" font-size="12">28</text>
<rect width="46" height="520" x="362" y="40" style="fill:rgb(230,230,230);stroke:none"/>
<text x="378" y="575" fill="rgb(0,0,0)" font-family="Arial" font-size="12">29</text>
<text x="424" y="575" fill="rgb(0,0,0)" font-family="Arial" font-size="12">30</text>
<rect width="46" height="520" x="454" y="40" style="fill:rgb(230,230,230);stroke:none"/>
<text x="470" y="575" fill="rgb(0,0,0)" font-family="Arial" font-size="12">31</text>
<text x="516" y="575" fill="rgb(0,0,0)" font-family="Arial" font-size="12">32</text>
<rect width="46" height="520" x="546" y="40" style="fill:rgb(230,230,230);stroke:none"/>
<text x="562" y="575" fill="rgb(0,0,0)" font-family="Arial" font-size="12">33</text>
<text x="608" y="575" fill="rgb(0,0,0)" font-family="Arial" font-size="12">34</text>
<rect width="46" height="520" x="638" y="40" style="fill:rgb(230,230,230);stroke:none"/>
<text x="654" y="575" fill="rgb(0,0,0)" font-family="Arial" font-size="12">35</text>
<text x="700" y="575" fill="rgb(0,0,0)" font-family="Arial" font-size="12">36</text>
<rect width="46" height="520" x="730" y="40" style="fill:rgb(230,230,230);stroke:none"/>
<text x="746" y="575" fill="rgb(0,0,0)" font-family="Arial" font-size="12">37</text>
<line x1="40" y1="560" x2="790" y2="560" stroke="rgb(180,180,180)" stroke-width="1"/>
<line x1="40" y1="502" x2="790" y2="502" stroke="rgb(180,180,180)" stroke-width="1"/>
<line x1="40" y1="443" x2="790" y2="443" stroke="rgb(180,180,180)" stroke-width="1"/>
<line x1="40" y1="385" x2="790" y2="385" stroke="rgb(180,180,180)" stroke-width="1"/>
<line x1="40" y1="326" x2="790" y2="326" stroke="rgb(180,180,180)" stroke-width="1"/>
<line x1="40" y1="268" x2="790" y2="268" stroke="rgb(180,180,180)" stroke-width="1"/>
<line x1="40" y1="209" x2="790" y2="209" stroke="rgb(180,180,180)" stroke-width="1"/>
<line x1="40" y1="151" x2="790" y2="151" stroke="rgb(180,180,180)" stroke-width="1"/>
<line x1="40" y1="92" x2="790" y2="92" stroke="rgb(180,180,180)" stroke-width="1"/>
<line x1="63" y1="560" x2="109" y2="560" stroke="rgb(136,34,85)" stroke-width="1"/>
<line x1="109" y1="560" x2="155" y2="559" stroke="rgb(136,34,85)" stroke-width="1"/>
<line x1="155" y1="559" x2="201" y2="557" stroke="rgb(136,34,85)" stroke-width="1"/>
<line x1="201" y1="557" x2="247" y2="554" stroke="rgb(136,34,85)" stroke-width="1"/>
<line x1="247" y1="554" x2="293" y2="550" stroke="rgb(136,34,85)" stroke-width="1"/>
<line x1="293" y1="550" x2="339" y2="546" stroke="rgb(136,34,85)" stroke-width="1"/>
<line x1="339" y1="546" x2="385" y2="538" stroke="rgb(136,34,85)" stroke-width="1"/>
<line x1="385" y1="538" x2="431" y2="530" stroke="rgb(136,34,85)" stroke-width="1"/>
<line x1="431" y1="530" x2="477" y2="520" stroke="rgb(136,34,85)" stroke-width="1"/>
<line x1="477" y1="520" x2="523" y2="506" stroke="rgb(136,34,85)" stroke-width="1"/>
<line x1="523" y1="506" x2="569" y2="483" stroke="rgb(136,34,85)" stroke-width="1"/>
<line x1="569" y1="483" x2="615" y2="443" stroke="rgb(136,34,85)" stroke-width="1"/>
<line x1="615" y1="443" x2="661" y2="335" stroke="rgb(136,34,85)" stroke-width="1"/>
<line x1="661" y1="335" x2="707" y2="40" stroke="rgb(136,34,85)" stroke-width="1"/>
<line x1="707" y1="40" x2="753" y2="516" stroke="rgb(136,34,85)" stroke-width="1"/>
<rect width="156" height="23" x="634" y="40" style="fill:rgb(255,255,255);stroke:none"/>
<rect width="156" height="23" x="634" y="40" rx="0" ry="0" style="fill:none;stroke-width:1;stroke:rgb(192,192,192)"/>
<text x="637" y="55" fill="rgb(136,34,85)" font-family="Arial" font-size="12" font-weight="bold">Average Quality per read</text>
</svg>
